<?xml version="1.0" encoding="UTF-8" standalone="no"?>
<!-- Created with Inkscape (http://www.inkscape.org/) -->

<svg
   width="70mm"
   height="70mm"
   viewBox="0 0 69.999999 70"
   version="1.1"
   id="svg1"
   xml:space="preserve"
   xmlns:inkscape="http://www.inkscape.org/namespaces/inkscape"
   xmlns:sodipodi="http://sodipodi.sourceforge.net/DTD/sodipodi-0.dtd"
   xmlns="http://www.w3.org/2000/svg"
   xmlns:svg="http://www.w3.org/2000/svg"><sodipodi:namedview
     id="namedview1"
     pagecolor="#ffffff"
     bordercolor="#000000"
     borderopacity="0.25"
     inkscape:showpageshadow="2"
     inkscape:pageopacity="0.0"
     inkscape:pagecheckerboard="0"
     inkscape:deskcolor="#d1d1d1"
     inkscape:document-units="mm" /><defs
     id="defs1" /><g
     inkscape:label="Layer 1"
     inkscape:groupmode="layer"
     id="layer1"
     transform="translate(-111.46478,-109.70156)"><g
       id="g6"
       transform="translate(1.8740245,7.4567771)"><path
         style="fill:#dc282b;fill-opacity:1"
         d="m 155.37072,129.99093 c -0.36379,-0.20979 -1.25677,-0.57897 -1.98438,-0.82039 -1.73825,-0.57676 -1.71373,-0.54585 -2.44377,-3.07958 -0.77723,-2.69748 -2.48077,-6.34292 -4.14356,-8.86687 -1.45675,-2.21122 -1.46788,-2.15922 0.86287,-4.02978 9.77458,-7.84461 22.93418,-1.87274 26.21872,11.89816 0.68656,2.87847 0.69113,2.82636 -0.30108,3.42976 -1.05966,0.64442 -1.05806,0.64562 -2.1737,-1.64981 -4.70017,-9.67061 -13.98009,-9.29875 -14.44759,0.57894 -0.1438,3.03807 -0.29728,3.28361 -1.58751,2.53957 z"
         id="path5" /><path
         style="fill:#4eb842;fill-opacity:1"
         d="m 132.96968,130.04873 c -0.0938,-0.15183 -0.21516,-1.17392 -0.2696,-2.2713 -0.49802,-10.03878 -10.10316,-10.77301 -14.78692,-1.13033 -0.5389,1.10946 -0.86148,2.23663 -1.23153,2.17965 -0.8101,-0.12474 -2.09687,-0.961 -1.90897,-1.68973 1.45984,-5.66176 4.22049,-11.18453 9.01381,-14.74961 9.64506,-6.29636 19.9395,-0.94276 24.41764,12.69835 0.9085,2.7674 1.15852,2.57939 -3.61516,2.71847 -4.39158,0.12794 -6.53677,0.53655 -9.85637,1.87739 -1.03394,0.41763 -1.65212,0.54636 -1.7629,0.36711 z"
         id="path4"
         sodipodi:nodetypes="ssssssssss" /><path
         style="fill:#0fa0bf;fill-opacity:1"
         d="m 132.50305,135.62775 c -0.22685,-2.11832 -0.11595,-2.39035 1.25074,-3.06796 6.76134,-3.35233 15.356,-3.38809 21.81925,-0.0908 1.37944,0.70374 1.64976,1.20602 1.64976,3.06538 0,1.93634 -0.29624,2.0269 -2.85439,0.87256 -3.09959,-1.39866 -6.74314,-2.20169 -9.71331,-2.1408 -2.39159,0.049 -6.30429,0.88578 -8.59579,1.83826 -3.52926,1.46696 -3.34548,1.49159 -3.55626,-0.47665 z"
         id="path3" /><path
         style="fill:#0fa0bf;fill-opacity:1"
         d="m 142.2457,155.27907 c -2.8487,-1.29369 -5.6932,-4.51651 -6.72754,-7.62228 -0.39966,-1.20006 -0.87605,-2.12881 -1.17999,-2.30045 -2.26645,-1.27997 -2.71958,-4.54054 -0.78412,-5.64234 6.31937,-3.59743 14.2748,-3.89851 20.83968,-0.78869 1.37006,0.649 2.56752,1.30378 2.66102,1.45508 0.71403,1.15534 -0.21305,4.16506 -1.466,4.75928 -0.51079,0.24224 -0.83304,0.72133 -1.15682,1.71979 -2.06145,6.35711 -7.87824,10.37601 -12.18623,8.41961 z"
         id="path2" /><path
         style="fill:#0fa0bf;fill-opacity:1"
         d="m 133.85487,161.33771 c -2.45908,-1.86157 -2.46642,-1.93046 -0.31228,-2.93308 0.72761,-0.33865 1.95576,-1.2454 2.72924,-2.01501 1.62678,-1.61864 1.815,-1.66183 2.79313,-0.64088 2.8717,2.9974 8.01145,3.08793 11.21084,0.19746 1.35266,-1.22205 1.48005,-1.20806 2.84737,0.31274 0.67183,0.74723 1.79713,1.58994 2.73816,2.05052 2.38219,1.16595 1.76154,2.33832 -2.30642,4.35664 -3.57808,1.77527 -12.29089,4.28045 -19.70004,-1.32839 z"
         id="path1"
         sodipodi:nodetypes="sssssssss" /><circle
         style="fill:#fef9f3;fill-opacity:1;stroke:#b3b3b3;stroke-width:0.211667;stroke-linejoin:round;stroke-opacity:1"
         id="path6"
         cx="174.55139"
         cy="132.57396"
         r="3.0595019" /><circle
         style="fill:#fef9f3;fill-opacity:1;stroke:#b3b3b3;stroke-width:0.211667;stroke-linejoin:round;stroke-opacity:1"
         id="circle6"
         cx="114.63012"
         cy="132.72148"
         r="3.0595019" /></g></g></svg>
