<?xml version="1.0" encoding="UTF-8" standalone="no"?>
<svg
   width="75"
   height="75"
   viewBox="0 0 19.843748 19.84375"
   version="1.1"
   xmlns="http://www.w3.org/2000/svg"
   xmlns:svg="http://www.w3.org/2000/svg">
  <path
     d="m 15.498573,8.1326843 q 1.78919,0 3.067183,1.3012294 1.277994,1.2779933 1.277994,3.0671843 0,1.78919 -1.277994,3.067183 -1.277993,1.277993 -3.067183,1.277993 -1.626537,0 -2.881294,-1.068867 -1.231521,-1.092103 -1.440647,-2.71864 h -0.604143 q 0.09295,4.112815 1.765955,6.784983 H 7.5053059 q 1.673009,-2.672168 1.765954,-6.784983 h -0.604142 q -0.209126,1.626537 -1.463883,2.71864 -1.231521,1.068867 -2.858058,1.068867 -1.7891904,0 -3.0671836,-1.277993 Q 0,14.290288 0,12.501098 0,10.711907 1.2779933,9.4339137 2.5559865,8.1326843 4.3451769,8.1326843 q 1.719482,0 2.974239,1.1850482 L 7.7376679,8.5974091 Q 6.6455649,7.9932669 5.9949499,6.9011635 5.3443349,5.8090602 5.3443349,4.5775394 q 0,-1.8821354 1.347702,-3.2298374 Q 8.0397399,0 9.9218749,0 11.80401,0 13.151713,1.347702 q 1.347701,1.347702 1.347701,3.2298374 0,1.2315208 -0.650614,2.3236241 -0.650615,1.0921034 -1.742719,1.6962456 l 0.418253,0.7203234 q 1.254757,-1.1850482 2.974239,-1.1850482 z" />
</svg>
