<?xml version="1.0" encoding="UTF-8" standalone="no"?>
<svg
   width="60.612938"
   height="75"
   viewBox="0 0 16.037171 19.84375"
   version="1.1"
   xmlns="http://www.w3.org/2000/svg"
   xmlns:svg="http://www.w3.org/2000/svg">
  <path
     d="M 3.9642446,0 Q 2.1397916,0 1.0135856,1.7118336 0,3.1984254 0,5.1354998 q 0,2.0046467 1.6667856,4.8201617 0.630675,1.0811575 3.446189,5.0228785 2.18484,3.085805 2.905612,4.86521 0.720772,-1.779405 2.9056124,-4.86521 2.815515,-3.941721 3.44619,-5.0228785 1.666785,-2.815515 1.666785,-4.8201617 0,-1.9370744 -1.013586,-3.4236662 Q 13.897382,0 12.072929,0 10.270999,0 9.1673166,1.6442612 8.1762556,3.0858048 8.1762556,4.977831 h -0.337861 q 0,-1.8920262 -0.968538,-3.3335698 Q 5.7661746,0 3.9642446,0 Z" />
</svg>
