<?xml version="1.0" encoding="UTF-8" standalone="no"?>
<!-- Created with Inkscape (http://www.inkscape.org/) -->

<svg
   width="47.40556"
   height="74.999847"
   viewBox="0 0 12.542719 19.84371"
   version="1.1"
   id="svg1"
   inkscape:version="1.3 (0e150ed6c4, 2023-07-21)"
   sodipodi:docname="2.svg"
   xmlns:inkscape="http://www.inkscape.org/namespaces/inkscape"
   xmlns:sodipodi="http://sodipodi.sourceforge.net/DTD/sodipodi-0.dtd"
   xmlns="http://www.w3.org/2000/svg"
   xmlns:svg="http://www.w3.org/2000/svg">
  <sodipodi:namedview
     id="namedview1"
     pagecolor="#ffffff"
     bordercolor="#000000"
     borderopacity="0.25"
     inkscape:showpageshadow="2"
     inkscape:pageopacity="0.0"
     inkscape:pagecheckerboard="0"
     inkscape:deskcolor="#d1d1d1"
     inkscape:document-units="mm"
     inkscape:zoom="4.3621494"
     inkscape:cx="-21.663632"
     inkscape:cy="94.563474"
     inkscape:window-width="1920"
     inkscape:window-height="1009"
     inkscape:window-x="-8"
     inkscape:window-y="-8"
     inkscape:window-maximized="1"
     inkscape:current-layer="svg1" />
  <path
     d="m 10.038857,14.789179 h 2.503864 v 5.05453 H 0.0234006 v -1.287033 q 0,-3.53349 2.5740661,-6.341563 1.0062258,-1.076427 4.7971227,-3.8610986 2.574066,-1.8954487 2.574066,-3.2526835 0,-1.2636324 -1.427436,-1.9656504 -1.123229,-0.5616145 -2.550666,-0.5616145 -3.4866891,0 -3.4866891,2.3400601 0,0.4914126 0.2574066,1.0998282 L 0.4212108,6.9967795 Q 0,5.8969513 0,4.9141261 0,2.4804636 1.8252469,1.17003 3.4632889,0 5.9905534,0 q 2.527265,0 4.3759126,1.2636324 2.129454,1.4274367 2.129454,3.8376985 0,2.2464576 -2.246457,4.2121081 -2.1996566,1.684843 -4.3993126,3.369686 -2.5740663,2.152856 -3.1122801,4.586518 h 7.3009867 z"
     id="text4"
     style="font-size:23.4006px;font-family:'Card Characters';-inkscape-font-specification:'Card Characters';letter-spacing:-2.32324px;stroke-width:0.21938"
     aria-label="2" />
</svg>
