<?xml version="1.0" encoding="UTF-8" standalone="no"?>
<svg
   width="47.40556"
   height="74.999847"
   viewBox="0 0 12.542719 19.84371"
   version="1.1"
   xmlns="http://www.w3.org/2000/svg"
   xmlns:svg="http://www.w3.org/2000/svg">
  <path
     d="m 10.038857,14.789179 h 2.503864 v 5.05453 H 0.0234006 v -1.287033 q 0,-3.53349 2.5740661,-6.341563 1.0062258,-1.076427 4.7971227,-3.8610986 2.574066,-1.8954487 2.574066,-3.2526835 0,-1.2636324 -1.427436,-1.9656504 -1.123229,-0.5616145 -2.550666,-0.5616145 -3.4866891,0 -3.4866891,2.3400601 0,0.4914126 0.2574066,1.0998282 L 0.4212108,6.9967795 Q 0,5.8969513 0,4.9141261 0,2.4804636 1.8252469,1.17003 3.4632889,0 5.9905534,0 q 2.527265,0 4.3759126,1.2636324 2.129454,1.4274367 2.129454,3.8376985 0,2.2464576 -2.246457,4.2121081 -2.1996566,1.684843 -4.3993126,3.369686 -2.5740663,2.152856 -3.1122801,4.586518 h 7.3009867 z" />
</svg>
