<?xml version="1.0" encoding="UTF-8" standalone="no"?>
<!-- Created with Inkscape (http://www.inkscape.org/) -->

<svg
   width="50.117645"
   height="75"
   viewBox="0 0 13.260292 19.84375"
   version="1.1"
   id="svg1"
   inkscape:version="1.3 (0e150ed6c4, 2023-07-21)"
   sodipodi:docname="3.svg"
   xmlns:inkscape="http://www.inkscape.org/namespaces/inkscape"
   xmlns:sodipodi="http://sodipodi.sourceforge.net/DTD/sodipodi-0.dtd"
   xmlns="http://www.w3.org/2000/svg"
   xmlns:svg="http://www.w3.org/2000/svg">
  <sodipodi:namedview
     id="namedview1"
     pagecolor="#ffffff"
     bordercolor="#000000"
     borderopacity="0.25"
     inkscape:showpageshadow="2"
     inkscape:pageopacity="0.0"
     inkscape:pagecheckerboard="0"
     inkscape:deskcolor="#d1d1d1"
     inkscape:document-units="mm"
     inkscape:zoom="4.3621494"
     inkscape:cx="-4.6995181"
     inkscape:cy="93.188005"
     inkscape:window-width="1920"
     inkscape:window-height="1009"
     inkscape:window-x="-8"
     inkscape:window-y="-8"
     inkscape:window-maximized="1"
     inkscape:current-layer="svg1" />
  <defs
     id="defs1" />
  <path
     d="m 6.3966911,19.84375 q -2.2411764,0 -4.0154412,-1.540809 Q 0.7704044,16.902206 0,14.661029 l 2.3812499,-0.840441 q 0.4902574,1.470772 1.4707721,2.404595 1.1205882,1.073898 2.5446691,1.073898 1.7742647,0 3.058272,-1.400736 1.2840079,-1.400735 1.2840079,-3.174999 0,-1.75092 -1.0972432,-2.8481623 -1.0972426,-1.0972426 -2.8715073,-1.0972426 -0.8170956,0 -1.2840073,0.2101102 Q 5.0193014,9.1981616 4.3656249,9.8051469 L 2.5680146,8.0308823 8.381066,2.5680147 H 2.8014706 V 5.0659926 H 0.2801471 V 0 H 13.050184 V 1.6108456 L 8.0775734,6.3266544 q 2.3579046,0.4435661 3.7586396,2.2178308 1.424081,1.7509188 1.424081,4.1788608 0,2.824816 -2.031066,4.97261 -2.0310664,2.147794 -4.8325369,2.147794 z"
     id="text4"
     style="font-size:28.2223px;font-family:'Card Characters';-inkscape-font-specification:'Card Characters';letter-spacing:-2.80194px;stroke-width:0.218864"
     aria-label="3" />
</svg>
