<?xml version="1.0" encoding="UTF-8" standalone="no"?>
<svg
   width="48.916862"
   height="75"
   viewBox="0 0 12.942585 19.84375"
   version="1.1"
   xmlns="http://www.w3.org/2000/svg"
   xmlns:svg="http://www.w3.org/2000/svg">
  <path
     d="m 6.2273123,19.84375 q -2.091261,0 -3.833979,-1.440647 Q 0.8597408,17.078637 0,14.987376 l 2.3236243,-0.975922 q 0.55767,1.370938 1.487119,2.253915 1.092104,1.045631 2.416569,1.045631 1.8589,0 3.090421,-1.742718 1.1153387,-1.556828 1.1153387,-3.4622 0,-1.928608 -1.1153387,-3.4389639 -1.208285,-1.6497731 -3.090421,-1.6497731 -1.603301,0 -3.183365,1.7427181 L 1.2315207,7.691196 V 0 H 10.665434 V 2.5559867 H 3.7410353 v 2.4862779 q 1.208284,-0.5576698 2.486277,-0.5576698 2.927767,0 4.8796107,2.3933328 1.835663,2.2306791 1.835663,5.2281544 0,2.997475 -1.812427,5.274627 -1.9750797,2.463041 -4.9028467,2.463041 z"  />
</svg>
