<?xml version="1.0" encoding="UTF-8" standalone="no"?>
<!-- Created with Inkscape (http://www.inkscape.org/) -->

<svg
   width="48.916862"
   height="75"
   viewBox="0 0 12.942585 19.84375"
   version="1.1"
   id="svg1"
   inkscape:version="1.3 (0e150ed6c4, 2023-07-21)"
   sodipodi:docname="5.svg"
   xmlns:inkscape="http://www.inkscape.org/namespaces/inkscape"
   xmlns:sodipodi="http://sodipodi.sourceforge.net/DTD/sodipodi-0.dtd"
   xmlns="http://www.w3.org/2000/svg"
   xmlns:svg="http://www.w3.org/2000/svg">
  <sodipodi:namedview
     id="namedview1"
     pagecolor="#ffffff"
     bordercolor="#000000"
     borderopacity="0.25"
     inkscape:showpageshadow="2"
     inkscape:pageopacity="0.0"
     inkscape:pagecheckerboard="0"
     inkscape:deskcolor="#d1d1d1"
     inkscape:document-units="mm"
     inkscape:zoom="4.3621494"
     inkscape:cx="-13.41082"
     inkscape:cy="79.891808"
     inkscape:window-width="1920"
     inkscape:window-height="1009"
     inkscape:window-x="-8"
     inkscape:window-y="-8"
     inkscape:window-maximized="1"
     inkscape:current-layer="svg1" />
  <defs
     id="defs1" />
  <path
     d="m 6.2273123,19.84375 q -2.091261,0 -3.833979,-1.440647 Q 0.8597408,17.078637 0,14.987376 l 2.3236243,-0.975922 q 0.55767,1.370938 1.487119,2.253915 1.092104,1.045631 2.416569,1.045631 1.8589,0 3.090421,-1.742718 1.1153387,-1.556828 1.1153387,-3.4622 0,-1.928608 -1.1153387,-3.4389639 -1.208285,-1.6497731 -3.090421,-1.6497731 -1.603301,0 -3.183365,1.7427181 L 1.2315207,7.691196 V 0 H 10.665434 V 2.5559867 H 3.7410353 v 2.4862779 q 1.208284,-0.5576698 2.486277,-0.5576698 2.927767,0 4.8796107,2.3933328 1.835663,2.2306791 1.835663,5.2281544 0,2.997475 -1.812427,5.274627 -1.9750797,2.463041 -4.9028467,2.463041 z"
     id="text4"
     style="font-size:28.2223px;font-family:'Card Characters';-inkscape-font-specification:'Card Characters';letter-spacing:-2.80194px;stroke-width:0.217839"
     aria-label="5" />
</svg>
