<?xml version="1.0" encoding="UTF-8" standalone="no"?>
<svg
   width="46.831799"
   height="75"
   viewBox="0 0 12.390912 19.84375"
   version="1.1"
   xmlns="http://www.w3.org/2000/svg"
   xmlns:svg="http://www.w3.org/2000/svg">
  <path
     d="M 0.068584,11.453593 H 0.045723 Q 0,11.545043 0,9.8304291 0,5.8068121 1.0973502,3.3606351 2.6519298,0 6.1954565,0 7.9329278,0 9.4189227,0.9373199 10.836334,1.8517781 11.727932,3.4063571 l -2.1261163,1.280243 q -1.234519,-2.171839 -3.4063592,-2.171839 -2.8348214,0 -3.5206653,4.22937 1.5774409,-1.394549 3.4978038,-1.394549 2.8348207,0 4.618016,2.354731 1.600303,2.126116 1.600303,5.0752439 0,2.743376 -1.71461,4.846631 -1.8289173,2.217562 -4.503709,2.217562 -1.3259648,0 -2.766237,-0.868735 Q 1.8746396,18.060556 0.960181,15.614379 0.2514757,13.716878 0.068584,11.453593 Z m 6.1040106,5.898257 q 1.6460251,0 2.7433761,-1.508857 1.028765,-1.371687 1.028765,-3.063436 0,-1.897501 -0.93732,-3.2920499 -1.0516271,-1.623164 -2.8348211,-1.623164 -1.3031034,0 -2.3547307,1.25738 -0.8687355,1.0516279 -1.2802419,2.4690389 0.2057532,2.103254 0.9144586,3.612111 1.0059043,2.148977 2.720514,2.148977 z" />
</svg>
