<?xml version="1.0" encoding="UTF-8" standalone="no"?>
<!-- Created with Inkscape (http://www.inkscape.org/) -->

<svg
   width="48.534584"
   height="75"
   viewBox="0 0 12.841441 19.84375"
   version="1.1"
   id="svg1"
   inkscape:version="1.3 (0e150ed6c4, 2023-07-21)"
   sodipodi:docname="8.svg"
   xmlns:inkscape="http://www.inkscape.org/namespaces/inkscape"
   xmlns:sodipodi="http://sodipodi.sourceforge.net/DTD/sodipodi-0.dtd"
   xmlns="http://www.w3.org/2000/svg"
   xmlns:svg="http://www.w3.org/2000/svg">
  <sodipodi:namedview
     id="namedview1"
     pagecolor="#ffffff"
     bordercolor="#000000"
     borderopacity="0.25"
     inkscape:showpageshadow="2"
     inkscape:pageopacity="0.0"
     inkscape:pagecheckerboard="0"
     inkscape:deskcolor="#d1d1d1"
     inkscape:document-units="mm"
     inkscape:zoom="4.3621494"
     inkscape:cx="41.149439"
     inkscape:cy="67.741834"
     inkscape:window-width="1920"
     inkscape:window-height="1009"
     inkscape:window-x="-8"
     inkscape:window-y="-8"
     inkscape:window-maximized="1"
     inkscape:current-layer="svg1" />
  <defs
     id="defs1" />
  <path
     d="m 6.4207211,19.84375 q -2.5822466,0 -4.4665886,-1.67497 Q 0,16.447282 0,13.911562 0,10.933837 2.5822466,9.1425492 0.721168,7.6071592 0.721168,5.2575462 q 0,-2.2565574 1.7447611,-3.7919469 Q 4.1408998,0 6.4207211,0 q 2.2798212,0 3.9547919,1.4655993 1.744761,1.5353895 1.744761,3.7919469 0,2.326349 -1.861078,3.885003 2.582246,1.7680238 2.582246,4.7690128 0,2.53572 -1.930869,4.233953 -1.9076054,1.698235 -4.4898519,1.698235 z m 0,-17.3080305 q -1.2329646,0 -2.1635039,0.7444317 -1.0468567,0.790958 -1.0468567,1.977395 0,1.186439 1.0468567,1.977397 0.9305393,0.744432 2.1635039,0.744432 1.2329646,0 2.1635038,-0.744432 1.0468567,-0.790958 1.0468567,-1.977397 0,-1.186437 -1.0468567,-1.977395 Q 7.6536857,2.5357195 6.4207211,2.5357195 Z m 0,7.9793745 q -1.5121264,0 -2.6753005,0.930539 -1.256228,0.977066 -1.256228,2.465929 0,1.4656 1.256228,2.465929 1.1631741,0.907276 2.6753005,0.907276 1.5121264,0 2.6753004,-0.907276 1.2562285,-1.000329 1.2562285,-2.465929 0,-1.488863 -1.2562285,-2.465929 -1.163174,-0.930539 -2.6753004,-0.930539 z"
     id="text3"
     style="font-size:28.2223px;font-family:'Card Characters';-inkscape-font-specification:'Card Characters';letter-spacing:-2.80194px;stroke-width:0.218094"
     aria-label="8" />
</svg>
