<?xml version="1.0" encoding="UTF-8" standalone="no"?>
<!-- Created with Inkscape (http://www.inkscape.org/) -->

<svg
   width="47.459579"
   height="75"
   viewBox="0 0 12.557013 19.84375"
   version="1.1"
   id="svg1"
   inkscape:version="1.3 (0e150ed6c4, 2023-07-21)"
   sodipodi:docname="9.svg"
   xmlns:inkscape="http://www.inkscape.org/namespaces/inkscape"
   xmlns:sodipodi="http://sodipodi.sourceforge.net/DTD/sodipodi-0.dtd"
   xmlns="http://www.w3.org/2000/svg"
   xmlns:svg="http://www.w3.org/2000/svg">
  <sodipodi:namedview
     id="namedview1"
     pagecolor="#ffffff"
     bordercolor="#000000"
     borderopacity="0.25"
     inkscape:showpageshadow="2"
     inkscape:pageopacity="0.0"
     inkscape:pagecheckerboard="0"
     inkscape:deskcolor="#d1d1d1"
     inkscape:document-units="mm"
     inkscape:zoom="4.3621494"
     inkscape:cx="19.14194"
     inkscape:cy="93.646495"
     inkscape:window-width="1920"
     inkscape:window-height="1009"
     inkscape:window-x="-8"
     inkscape:window-y="-8"
     inkscape:window-maximized="1"
     inkscape:current-layer="svg1" />
  <defs
     id="defs1" />
  <path
     d="m 9.8760464,12.57993 q -1.6039983,1.283198 -3.6204534,1.283198 -2.7038825,0 -4.5141092,-2.131026 Q 0,9.6698182 0,6.9430213 0,4.1933101 1.7414838,2.1539407 3.5517105,0 6.255593,0 q 3.3454819,0 5.018223,3.4600537 1.283198,2.6809685 1.283198,6.4389072 0,3.9412531 -1.260284,6.5305641 -1.6498262,3.414225 -5.1786224,3.414225 -3.4371393,0 -5.45359407,-3.528796 L 2.8184538,15.054669 q 1.2831991,2.268513 3.2996538,2.268513 3.0017682,0 3.7579388,-4.743252 z M 6.255593,2.5205688 q -1.6498266,0 -2.7497114,1.4206844 -1.0311414,1.3061128 -1.0311414,3.0017681 0,1.6956555 1.0311414,3.0017685 1.0998848,1.4206842 2.7497114,1.4206842 1.3977699,0 2.4289114,-1.076971 Q 9.6010749,9.3261046 9.9447891,7.8825062 9.2802751,2.5205688 6.255593,2.5205688 Z"
     id="text2"
     style="font-size:35.2777px;font-family:'Card Characters';-inkscape-font-specification:'Card Characters';letter-spacing:-2.80194px;stroke-width:0.171857"
     aria-label="9" />
</svg>
